<svg width="554" height="86" viewBox="0 0 554 86" xmlns="http://www.w3.org/2000/svg"><title>logo-mono</title><g id="Logo" fill="none" fill-rule="evenodd"><g id="logo-mono" fill="#FFF"><path d="M43.307 12.9C46.714 6.286 53.61 1.762 61.562 1.762h20.52v20.52c0 8.87-5.626 16.425-13.505 19.29-.115-3.878-.865-7.5-2.25-10.87-1.51-3.672-3.65-6.868-6.42-9.586-2.768-2.72-6.068-4.844-9.9-6.377-2.118-.848-4.35-1.46-6.7-1.84zm-4.767-.443C35.058 6.084 28.294 1.762 20.52 1.762 9.188 1.762 0 10.95 0 22.282c0 9.595 6.584 17.65 15.48 19.898V12.44h21.9c.39 0 .776.006 1.16.017zm30.032 31.575c7.88 2.864 13.51 10.42 13.51 19.292 0 11.333-9.187 20.52-20.52 20.52-7.954 0-14.852-4.525-18.257-11.142 2.35-.386 4.584-1.01 6.702-1.874 3.832-1.562 7.132-3.702 9.9-6.42 2.77-2.72 4.91-5.93 6.42-9.63 1.365-3.346 2.113-6.928 2.245-10.746zm-30.034 29.12c-3.482 6.372-10.245 10.693-18.017 10.693C9.188 83.845 0 74.657 0 63.325c0-9.595 6.584-17.65 15.48-19.898V73.17h21.9c.39 0 .775-.006 1.158-.017zM41.04 24.04v18.763H57.18V42.8c0-2.71-.465-5.234-1.395-7.572-.93-2.338-2.232-4.344-3.906-6.018-1.673-1.674-3.706-2.99-6.097-3.945-1.478-.592-3.058-1-4.74-1.226zM26.81 41.82c7.725-2.485 13.452-9.424 14.158-17.793-1.016-.134-2.07-.2-3.16-.2H26.81v17.992zm30.366 1.45c-8.667 1.888-15.29 9.252-16.06 18.285 1.653-.222 3.208-.616 4.664-1.182 2.39-.93 4.424-2.232 6.097-3.905 1.674-1.674 2.976-3.667 3.906-5.978.894-2.222 1.358-4.63 1.393-7.22zM40.968 61.577c-.706-8.368-6.433-15.306-14.158-17.79V61.77h11c1.09 0 2.142-.065 3.158-.194z" id="logo"/><path d="M101.197 1.803h17.97c3.764 0 7.218.608 10.363 1.825 3.144 1.216 5.852 2.903 8.124 5.06 2.272 2.158 4.028 4.694 5.267 7.61 1.24 2.913 1.86 6.07 1.86 9.466v.138c0 3.396-.62 6.564-1.86 9.5-1.238 2.94-2.994 5.487-5.266 7.644s-4.98 3.856-8.124 5.095c-3.145 1.24-6.6 1.86-10.363 1.86h-17.97V1.803zm8.47 7.712V42.29h9.5c2.525 0 4.82-.403 6.885-1.206 2.066-.804 3.822-1.928 5.268-3.374 1.446-1.446 2.57-3.167 3.373-5.164.804-1.997 1.205-4.166 1.205-6.507V25.9c0-2.34-.4-4.522-1.205-6.54-.803-2.02-1.927-3.754-3.373-5.2-1.446-1.446-3.202-2.582-5.268-3.408-2.065-.826-4.36-1.24-6.885-1.24h-9.5zm57.87 41.31c-2.616 0-5.06-.458-7.332-1.376-2.272-.92-4.246-2.204-5.92-3.857-1.677-1.652-2.996-3.637-3.96-5.955s-1.446-4.877-1.446-7.677v-.137c0-2.616.435-5.072 1.307-7.367.872-2.295 2.1-4.304 3.683-6.025 1.584-1.72 3.455-3.074 5.612-4.06 2.157-.988 4.544-1.48 7.16-1.48 2.892 0 5.428.526 7.61 1.582 2.18 1.056 3.992 2.48 5.438 4.27 1.446 1.79 2.536 3.866 3.27 6.23.735 2.364 1.102 4.854 1.102 7.47 0 .368-.01.747-.034 1.137-.023.39-.058.79-.103 1.204H157.21c.46 2.983 1.64 5.267 3.546 6.85 1.905 1.584 4.21 2.376 6.92 2.376 2.065 0 3.855-.367 5.37-1.102 1.515-.734 3.006-1.813 4.475-3.236l4.89 4.338c-1.744 2.065-3.82 3.718-6.23 4.957-2.41 1.24-5.29 1.86-8.642 1.86zm8.263-21.55c-.138-1.33-.436-2.582-.895-3.752-.46-1.17-1.08-2.18-1.86-3.03-.78-.85-1.71-1.526-2.788-2.03-1.078-.506-2.306-.758-3.683-.758-2.57 0-4.694.884-6.37 2.65-1.674 1.768-2.696 4.074-3.063 6.92h18.66zm13.462-15.63h8.33v5.51c.598-.827 1.24-1.607 1.93-2.342.688-.734 1.48-1.4 2.375-1.997.895-.596 1.905-1.067 3.03-1.41 1.124-.345 2.375-.517 3.752-.517 2.615 0 4.84.584 6.677 1.754 1.836 1.17 3.236 2.72 4.2 4.648 1.47-1.928 3.19-3.477 5.164-4.648 1.975-1.17 4.34-1.755 7.093-1.755 3.994 0 7.115 1.203 9.364 3.613 2.25 2.41 3.374 5.84 3.374 10.294V50h-8.33V29.344c0-2.892-.643-5.095-1.928-6.61-1.285-1.514-3.1-2.272-5.44-2.272-2.295 0-4.165.77-5.61 2.307-1.447 1.537-2.17 3.774-2.17 6.712V50h-8.33V29.275c0-2.846-.644-5.026-1.93-6.54-1.284-1.515-3.097-2.273-5.438-2.273-2.34 0-4.223.804-5.646 2.41-1.423 1.607-2.135 3.81-2.135 6.61V50h-8.33V13.646zm79.492 37.18c-2.754 0-5.313-.492-7.677-1.48-2.364-.986-4.406-2.33-6.128-4.027-1.722-1.698-3.065-3.695-4.03-5.99-.963-2.295-1.445-4.728-1.445-7.298v-.138c0-2.617.494-5.072 1.48-7.367.988-2.296 2.342-4.304 4.063-6.025 1.72-1.72 3.764-3.087 6.128-4.097 2.364-1.01 4.946-1.514 7.746-1.514 2.8 0 5.382.492 7.746 1.48 2.364.986 4.406 2.34 6.128 4.06 1.72 1.722 3.064 3.72 4.027 5.99.964 2.273 1.446 4.718 1.446 7.334v.138c0 2.57-.494 5.003-1.48 7.298-.988 2.295-2.342 4.303-4.063 6.025-1.722 1.72-3.776 3.087-6.163 4.096-2.386 1.01-4.98 1.516-7.78 1.516zm.138-7.297c1.698 0 3.224-.31 4.578-.93 1.355-.62 2.514-1.446 3.478-2.478.963-1.033 1.698-2.25 2.203-3.65.506-1.4.758-2.88.758-4.44v-.138c0-1.607-.275-3.122-.826-4.544-.55-1.423-1.32-2.663-2.307-3.718-.986-1.056-2.157-1.894-3.51-2.514-1.355-.62-2.858-.93-4.51-.93-1.653 0-3.157.31-4.51.93-1.355.62-2.514 1.446-3.478 2.48-.964 1.032-1.698 2.26-2.203 3.683-.505 1.422-.757 2.913-.757 4.474v.138c0 1.606.275 3.11.826 4.51.55 1.4 1.32 2.628 2.306 3.683.986 1.056 2.157 1.894 3.51 2.513 1.355.62 2.835.93 4.442.93zm41.416 7.298c-2.708 0-5.21-.493-7.505-1.48s-4.28-2.33-5.955-4.028c-1.676-1.698-2.984-3.695-3.925-5.99-.94-2.295-1.412-4.728-1.412-7.298v-.138c0-2.57.472-5.015 1.413-7.333.94-2.32 2.26-4.34 3.96-6.06 1.697-1.72 3.694-3.087 5.99-4.097 2.294-1.01 4.82-1.514 7.573-1.514 1.698 0 3.247.148 4.647.446 1.4.298 2.686.723 3.856 1.274 1.17.55 2.248 1.216 3.235 1.997.987.78 1.917 1.63 2.79 2.547l-5.234 5.577c-1.284-1.33-2.65-2.42-4.096-3.27-1.446-.85-3.2-1.273-5.267-1.273-1.515 0-2.915.31-4.2.93-1.285.62-2.398 1.445-3.34 2.478-.94 1.033-1.675 2.26-2.203 3.684-.527 1.422-.79 2.913-.79 4.474v.138c0 1.606.263 3.12.79 4.544.528 1.423 1.274 2.662 2.238 3.718s2.112 1.882 3.443 2.48c1.33.596 2.8.894 4.406.894 1.975 0 3.708-.413 5.2-1.24 1.49-.826 2.903-1.904 4.234-3.236l5.026 4.958c-1.79 2.02-3.832 3.66-6.128 4.923-2.295 1.262-5.21 1.893-8.744 1.893zm19.315-37.18h8.33v8.193c1.15-2.755 2.778-4.958 4.89-6.61 2.11-1.653 4.773-2.41 7.987-2.273v8.813h-.482c-1.837 0-3.512.3-5.027.896-1.513.596-2.822 1.49-3.923 2.685-1.102 1.194-1.95 2.698-2.548 4.51-.598 1.814-.896 3.914-.896 6.3V50h-8.33V13.646zm33.98 37.11c-1.698 0-3.328-.24-4.888-.722s-2.926-1.193-4.097-2.134c-1.17-.94-2.11-2.11-2.823-3.51-.71-1.4-1.067-3.02-1.067-4.856v-.137c0-1.974.367-3.695 1.102-5.164.734-1.47 1.755-2.685 3.063-3.65 1.31-.963 2.892-1.686 4.75-2.168 1.86-.482 3.89-.723 6.095-.723 2.065 0 3.855.138 5.37.413 1.515.275 2.984.643 4.407 1.102v-.896c0-2.615-.77-4.59-2.307-5.92-1.538-1.33-3.775-1.997-6.713-1.997-2.066 0-3.902.207-5.508.62-1.607.413-3.236.964-4.89 1.653l-2.202-6.54c2.02-.92 4.085-1.642 6.197-2.17 2.11-.528 4.613-.792 7.505-.792 5.416 0 9.432 1.354 12.05 4.062 1.33 1.33 2.317 2.938 2.96 4.82.642 1.882.963 4.016.963 6.403V50h-8.124v-4.544c-1.24 1.47-2.823 2.72-4.75 3.752-1.93 1.033-4.293 1.55-7.093 1.55zm2.34-6.058c1.378 0 2.664-.183 3.857-.55 1.193-.368 2.215-.896 3.064-1.584.85-.69 1.526-1.515 2.03-2.48.506-.963.758-2.018.758-3.166v-2.48c-1.055-.412-2.283-.756-3.683-1.03-1.4-.277-2.927-.415-4.58-.415-2.708 0-4.808.528-6.3 1.584s-2.238 2.548-2.238 4.475v.138c0 1.744.678 3.1 2.032 4.062 1.354.964 3.04 1.446 5.06 1.446zm41.21 6.128c-2.707 0-5.21-.493-7.504-1.48-2.296-.987-4.28-2.33-5.957-4.028-1.675-1.698-2.983-3.695-3.924-5.99-.942-2.295-1.413-4.728-1.413-7.298v-.138c0-2.57.47-5.015 1.412-7.333.94-2.32 2.26-4.34 3.958-6.06 1.698-1.72 3.695-3.087 5.99-4.097 2.295-1.01 4.82-1.514 7.574-1.514 1.698 0 3.247.148 4.647.446 1.4.298 2.685.723 3.855 1.274 1.17.55 2.25 1.216 3.236 1.997.988.78 1.918 1.63 2.79 2.547l-5.233 5.577c-1.285-1.33-2.65-2.42-4.097-3.27-1.446-.85-3.2-1.273-5.267-1.273-1.515 0-2.915.31-4.2.93-1.285.62-2.398 1.445-3.34 2.478-.94 1.033-1.675 2.26-2.203 3.684-.528 1.422-.79 2.913-.79 4.474v.138c0 1.606.262 3.12.79 4.544.528 1.423 1.274 2.662 2.238 3.718s2.112 1.882 3.443 2.48c1.332.596 2.8.894 4.407.894 1.974 0 3.707-.413 5.2-1.24 1.49-.826 2.902-1.904 4.233-3.236l5.026 4.958c-1.79 2.02-3.833 3.66-6.128 4.923-2.295 1.262-5.21 1.893-8.744 1.893zm44.172-37.18H460l-14.46 37.387c-.733 1.882-1.49 3.465-2.27 4.75-.78 1.286-1.654 2.33-2.618 3.133-.963.804-2.02 1.39-3.167 1.756-1.147.367-2.455.55-3.924.55-1.744 0-3.293-.194-4.647-.584-1.354-.39-2.674-.93-3.96-1.618l2.824-6.197c.78.413 1.572.746 2.375.998.804.254 1.64.38 2.514.38 1.193 0 2.18-.298 2.96-.895.78-.597 1.515-1.675 2.204-3.236l-15.148-36.424h8.95l10.26 26.99 9.433-26.99zm36.39 37.18c-3.672 0-6.977-.677-9.915-2.03-2.938-1.355-5.45-3.18-7.54-5.475-2.088-2.294-3.694-4.933-4.82-7.917-1.124-2.983-1.686-6.128-1.686-9.433v-.137c0-3.305.562-6.45 1.687-9.433 1.126-2.984 2.732-5.623 4.82-7.918 2.09-2.295 4.602-4.12 7.54-5.474 2.938-1.354 6.243-2.03 9.915-2.03 3.626 0 6.92.676 9.88 2.03 2.96 1.354 5.485 3.18 7.574 5.474 2.087 2.295 3.694 4.934 4.82 7.918 1.123 2.984 1.685 6.128 1.685 9.433v.137c0 3.305-.562 6.45-1.686 9.433-1.126 2.984-2.733 5.623-4.82 7.918-2.09 2.296-4.614 4.12-7.575 5.475-2.96 1.354-6.254 2.03-9.88 2.03zm.07-1.377c3.35 0 6.402-.643 9.156-1.93 2.755-1.284 5.12-2.994 7.093-5.128 1.974-2.135 3.488-4.613 4.544-7.436 1.056-2.823 1.584-5.795 1.584-8.917V25.9c0-3.076-.54-6.036-1.617-8.882-1.08-2.846-2.605-5.348-4.58-7.505-1.973-2.158-4.348-3.89-7.125-5.2-2.777-1.307-5.84-1.96-9.192-1.96-3.397 0-6.46.642-9.192 1.927-2.73 1.285-5.083 2.995-7.057 5.13-1.974 2.134-3.49 4.624-4.545 7.47-1.055 2.846-1.583 5.807-1.583 8.882v.138c0 3.075.538 6.036 1.617 8.882 1.08 2.846 2.605 5.347 4.58 7.505 1.972 2.156 4.348 3.89 7.125 5.197 2.777 1.308 5.84 1.962 9.192 1.962zm48.85 1.24c-3.717 0-7.17-.667-10.36-1.998-3.19-1.33-6.095-3.236-8.71-5.715l1.1-1.102c2.48 2.387 5.233 4.223 8.263 5.51 3.03 1.284 6.31 1.926 9.846 1.926 2.25 0 4.292-.285 6.128-.86 1.836-.573 3.396-1.365 4.682-2.375 1.285-1.01 2.272-2.214 2.96-3.614.69-1.4 1.033-2.903 1.033-4.51v-.137c0-1.47-.252-2.788-.757-3.96-.505-1.17-1.354-2.214-2.548-3.132-1.193-.917-2.81-1.73-4.854-2.443-2.043-.71-4.58-1.388-7.608-2.03-2.984-.598-5.52-1.275-7.608-2.032-2.09-.758-3.787-1.64-5.095-2.65-1.31-1.01-2.26-2.17-2.858-3.478-.598-1.308-.896-2.812-.896-4.51v-.138c0-1.7.39-3.294 1.17-4.786.78-1.492 1.87-2.8 3.27-3.924 1.4-1.125 3.054-2.01 4.958-2.65 1.905-.644 4.005-.965 6.3-.965 3.168 0 6.14.493 8.917 1.48 2.776.987 5.266 2.33 7.47 4.028l-.965 1.24c-2.157-1.607-4.544-2.904-7.16-3.89-2.617-.988-5.417-1.48-8.4-1.48-2.112 0-4.028.297-5.75.894-1.72.597-3.2 1.4-4.44 2.41-1.24 1.01-2.192 2.17-2.858 3.477-.665 1.308-.998 2.674-.998 4.096v.138c0 1.47.25 2.777.756 3.925.505 1.147 1.366 2.17 2.582 3.064 1.217.895 2.812 1.698 4.785 2.41 1.974.71 4.453 1.365 7.437 1.962 3.12.64 5.75 1.364 7.883 2.168 2.135.803 3.856 1.72 5.164 2.754 1.308 1.033 2.238 2.203 2.79 3.51.55 1.31.825 2.79.825 4.442v.138c0 1.79-.38 3.466-1.136 5.026-.758 1.56-1.848 2.915-3.27 4.062-1.424 1.148-3.156 2.055-5.2 2.72-2.042.666-4.325 1-6.85 1z" id="DemocracyOS"/><path d="M102.272 66.066h7.736c1.136 0 2.15.157 3.043.473.894.315 1.65.76 2.273 1.338.622.577 1.1 1.267 1.434 2.07.334.802.5 1.69.5 2.663v.056c0 1.1-.198 2.064-.595 2.894-.396.83-.942 1.524-1.636 2.083-.694.56-1.506.978-2.435 1.257-.927.28-1.924.42-2.988.42h-3.164V85h-4.166V66.066zm7.466 9.548c1.046 0 1.857-.275 2.434-.825.577-.55.866-1.232.866-2.043v-.054c0-.938-.302-1.65-.906-2.137-.605-.487-1.43-.73-2.475-.73h-3.22v5.788h3.3zm27.995-9.684h3.84L149.69 85h-4.356l-1.732-4.247h-8.006L133.866 85h-4.248l8.115-19.07zm4.382 11.145l-2.516-6.14-2.516 6.14h5.03zm21.395-11.01h8.656c2.398 0 4.237.64 5.518 1.92 1.082 1.083 1.623 2.526 1.623 4.33v.053c0 1.533-.375 2.782-1.123 3.746-.748.965-1.727 1.673-2.935 2.124L179.874 85h-4.87l-4.057-6.06h-3.273V85h-4.165V66.066zm8.385 9.197c1.028 0 1.817-.243 2.367-.73s.825-1.136.825-1.948v-.054c0-.9-.29-1.578-.866-2.028-.576-.45-1.378-.677-2.406-.677h-4.14v5.437h4.22zm22.26-9.196h4.166V85h-4.164V66.066zM220.69 85.27c-1.442 0-2.858-.247-4.247-.743-1.388-.496-2.65-1.258-3.786-2.286l2.46-2.947c.867.703 1.755 1.262 2.665 1.677.91.414 1.907.622 2.99.622.865 0 1.537-.158 2.014-.474.478-.315.717-.752.717-1.31v-.056c0-.27-.05-.51-.148-.716-.1-.208-.29-.402-.57-.582-.278-.18-.666-.36-1.162-.54-.496-.18-1.14-.37-1.934-.57-.956-.233-1.822-.495-2.597-.783-.776-.288-1.434-.644-1.975-1.068-.54-.424-.96-.95-1.258-1.582-.297-.63-.446-1.416-.446-2.353v-.055c0-.865.162-1.645.487-2.34.325-.694.78-1.293 1.367-1.798.586-.505 1.285-.893 2.096-1.163.812-.27 1.704-.405 2.678-.405 1.39 0 2.665.207 3.828.622 1.164.415 2.232 1.01 3.206 1.785l-2.164 3.138c-.848-.577-1.677-1.032-2.49-1.366-.81-.333-1.622-.5-2.433-.5-.812 0-1.42.158-1.826.473-.405.316-.608.708-.608 1.177v.054c0 .306.06.572.176.798.117.225.33.428.636.608s.726.352 1.258.514c.532.163 1.203.352 2.015.568.956.253 1.808.537 2.556.852.748.316 1.38.695 1.893 1.137.514.44.902.96 1.164 1.555.26.595.392 1.307.392 2.137v.054c0 .94-.172 1.773-.514 2.503-.343.73-.82 1.343-1.434 1.84-.613.495-1.343.874-2.19 1.135-.848.262-1.786.392-2.814.392z" id="PARIS"/><path d="M258.388 85.325c-1.353 0-2.606-.253-3.76-.758s-2.15-1.194-2.99-2.07c-.838-.874-1.49-1.906-1.96-3.096-.47-1.19-.703-2.46-.703-3.813v-.054c0-1.335.24-2.597.716-3.787.48-1.19 1.137-2.232 1.976-3.124.84-.893 1.835-1.596 2.99-2.11 1.153-.514 2.415-.77 3.786-.77.847 0 1.614.07 2.3.215.684.145 1.32.352 1.906.623.586.27 1.136.59 1.65.96s1.014.78 1.5 1.23l-1 1.028c-.414-.396-.847-.766-1.298-1.11-.45-.34-.933-.634-1.447-.878-.514-.243-1.073-.437-1.677-.58-.604-.146-1.258-.218-1.96-.218-1.137 0-2.192.217-3.166.65-.974.432-1.817 1.032-2.53 1.798-.71.767-1.27 1.664-1.676 2.692-.406 1.028-.61 2.137-.61 3.327v.053c0 1.19.21 2.303.623 3.34.415 1.037.98 1.94 1.69 2.705.713.767 1.556 1.37 2.53 1.813.974.442 2.03.663 3.165.663 1.37 0 2.56-.252 3.57-.757 1.01-.505 1.993-1.235 2.95-2.19l.945.92c-.505.485-1.023.932-1.555 1.338-.532.405-1.1.752-1.704 1.04-.604.29-1.258.515-1.96.677-.704.163-1.47.245-2.3.245zm22.287-19.26h1.407v17.637H293.2V85h-12.525V66.066zm27.833 0h1.407V85h-1.407V66.066zm18.122 0h1.326l7.6 11.2 7.6-11.2h1.327V85h-1.407V68.554l-7.492 10.9h-.11l-7.49-10.9V85h-1.354V66.066zm41.574-.135h1.353L378.375 85h-1.542l-2.408-5.302h-11.17L360.846 85h-1.46l8.817-19.07zm5.626 12.497l-4.977-10.955-5.004 10.955h9.98zm24.695-11.063h-6.6v-1.298h14.607v1.298h-6.6V85h-1.407V67.364zm23.18-1.298h13.47v1.298h-12.063v7.438h10.847v1.3H423.11v7.6h12.2V85h-13.606V66.066z" id="CLIMATE"/><path d="M457.325 81.7l6.303-5.166c.595-.487 1.1-.925 1.515-1.312.414-.388.752-.758 1.014-1.11.26-.35.45-.694.568-1.027.117-.334.176-.7.176-1.096 0-.812-.234-1.425-.702-1.84-.47-.415-1.082-.622-1.84-.622-.74 0-1.393.207-1.96.622-.57.415-1.205 1.055-1.908 1.92l-2.92-2.353c.468-.63.94-1.19 1.42-1.677.477-.487.99-.897 1.54-1.23.55-.334 1.16-.587 1.827-.758.667-.17 1.424-.257 2.272-.257.972 0 1.86.14 2.663.42.802.28 1.488.67 2.056 1.176.567.506 1.01 1.12 1.324 1.84.316.722.474 1.524.474 2.408v.054c0 .793-.104 1.5-.312 2.123-.207.622-.513 1.208-.92 1.758-.405.55-.923 1.1-1.555 1.65-.63.55-1.36 1.15-2.19 1.8l-3.083 2.38h8.25V85h-14.012v-3.3zm36.273 3.625c-1.263 0-2.412-.248-3.45-.744-1.036-.495-1.92-1.18-2.65-2.055-.73-.875-1.294-1.907-1.69-3.097-.397-1.19-.596-2.47-.596-3.84v-.055c0-1.37.203-2.65.61-3.84.405-1.19.977-2.228 1.717-3.112.738-.882 1.626-1.577 2.663-2.082 1.037-.505 2.186-.757 3.45-.757 1.243 0 2.383.25 3.42.745 1.037.496 1.92 1.18 2.65 2.056.732.875 1.3 1.908 1.705 3.098.406 1.19.61 2.47.61 3.84v.055c0 1.37-.204 2.65-.61 3.84-.405 1.19-.978 2.228-1.717 3.11-.74.885-1.627 1.58-2.664 2.084-1.037.505-2.186.758-3.448.758zm.054-3.76c.63 0 1.2-.15 1.704-.447.505-.297.937-.712 1.298-1.244.36-.532.636-1.163.825-1.893.188-.73.283-1.528.283-2.393v-.054c0-.866-.1-1.664-.297-2.394-.2-.73-.483-1.367-.852-1.908-.37-.54-.812-.965-1.326-1.27-.514-.308-1.077-.46-1.69-.46-.632 0-1.2.148-1.705.445-.504.298-.933.712-1.284 1.244-.353.533-.628 1.165-.826 1.895-.2.73-.298 1.528-.298 2.394v.053c0 .865.1 1.668.298 2.407.198.74.477 1.375.838 1.907.36.532.798.95 1.312 1.258.514.306 1.086.46 1.718.46zm25.425-11.415l-3.3.81-.866-3.407 5.438-1.623h2.84V85h-4.11V70.15zm25.75 15.175c-1.533 0-2.867-.253-4.003-.758-1.136-.505-2.164-1.2-3.084-2.083l2.516-3.002c.72.65 1.442 1.154 2.164 1.515.72.36 1.505.54 2.353.54.974 0 1.745-.225 2.313-.676.568-.45.852-1.1.852-1.946v-.054c0-.812-.31-1.443-.933-1.894-.623-.45-1.43-.676-2.42-.676-.596 0-1.16.068-1.692.203s-1.023.302-1.474.5l-2.41-1.595.542-9.332h11.632v3.65h-8.06l-.217 3.274c.378-.09.757-.167 1.136-.23.378-.063.83-.094 1.352-.094.92 0 1.78.117 2.583.35.803.236 1.506.596 2.11 1.083.604.486 1.078 1.113 1.42 1.88.343.765.514 1.68.514 2.745v.054c0 1.01-.17 1.915-.514 2.717-.342.803-.825 1.488-1.447 2.056-.62.568-1.378 1.005-2.27 1.312-.894.306-1.88.46-2.963.46z" id="2015"/></g></g></svg>