<?xml version="1.0" encoding="UTF-8" standalone="no"?>
<svg width="554px" height="86px" viewBox="0 0 554 86" version="1.1" xmlns="http://www.w3.org/2000/svg" xmlns:xlink="http://www.w3.org/1999/xlink" xmlns:sketch="http://www.bohemiancoding.com/sketch/ns">
    <!-- Generator: Sketch 3.3.1 (12005) - http://www.bohemiancoding.com/sketch -->
    <title>logo-mono</title>
    <desc>Created with Sketch.</desc>
    <defs></defs>
    <g id="Logo" stroke="none" stroke-width="1" fill="none" fill-rule="evenodd" sketch:type="MSPage">
        <g id="logo-mono" sketch:type="MSLayerGroup" fill="#FFFFFF">
            <path d="M43.3071224,12.8998472 C46.7136897,6.28555264 53.609513,1.76203893 61.5618596,1.76203893 L61.5618596,1.76203893 L82.0824795,1.76203893 L82.0824795,22.2826588 C82.0824795,31.1519441 76.4556655,38.7070166 68.5770423,41.5728714 C68.462175,37.6939895 67.712219,34.0705233 66.3271567,30.7023809 C64.8168376,27.0296435 62.6772509,23.8341207 59.9083324,21.1157167 C57.139414,18.3973126 53.8391365,16.2717839 50.0074008,14.7390667 C47.8893336,13.8918272 45.6559146,13.2787553 43.3071224,12.8998472 L43.3071224,12.8998472 Z M38.540144,12.4565886 C35.0579452,6.08428602 28.29404,1.76203893 20.5206199,1.76203893 C9.18739446,1.76203893 0,10.9494334 0,22.2826588 C0,31.8766584 6.58392234,39.9329005 15.4799995,42.1796177 L15.4799995,12.4400024 L37.3795177,12.4400024 C37.7691176,12.4400024 38.155993,12.4455312 38.540144,12.4565886 L38.540144,12.4565886 Z M68.5716744,44.0317342 C76.4531096,46.8961095 82.0824795,54.4525991 82.0824795,63.3238986 C82.0824795,74.657124 72.895085,83.8445184 61.5618596,83.8445184 C53.6075809,83.8445184 46.7103389,79.3188064 43.3046401,72.7018888 C45.654341,72.3158637 47.8885875,71.6910884 50.0074008,70.8275591 C53.8391365,69.2659228 57.139414,67.1259347 59.9083324,64.4075306 C62.6772509,61.6891266 64.8168376,58.4791444 66.3271567,54.7774878 C67.6922377,51.4317971 68.4404046,47.8499087 68.5716744,44.0317342 L68.5716744,44.0317342 Z M38.5384031,73.1531538 C35.0556912,79.5237116 28.2927448,83.8445184 20.5206199,83.8445184 C9.18739446,83.8445184 0,74.657124 0,63.3238986 C0,53.729899 6.58392234,45.6736569 15.4799995,43.4269397 L15.4799995,73.170002 L37.3795177,73.170002 C37.7685291,73.170002 38.1548242,73.1643859 38.5384031,73.1531538 L38.5384031,73.1531538 Z M41.0412398,24.0392101 L41.0412398,42.8032787 L57.1779395,42.8032787 L57.1779395,42.8000011 C57.1779395,40.0899877 56.7129932,37.5659934 55.7830867,35.2279426 C54.8531801,32.8898918 53.5513304,30.8839805 51.8774986,29.2101487 C50.2036667,27.5363169 48.1711871,26.221183 45.7799988,25.2647077 C44.3019204,24.6734763 42.7223404,24.2649783 41.0412398,24.0392101 Z M26.8099995,41.8215035 C34.5350153,39.3368241 40.2624845,32.3979952 40.9679342,24.0294895 C39.9520384,23.8964975 38.8991987,23.8300018 37.8094108,23.8300018 L26.8099995,23.8300018 L26.8099995,41.8215035 L26.8099995,41.8215035 Z M57.1758517,43.2730594 C48.5089174,45.1601298 41.8867611,52.5236337 41.1162742,61.5566795 C42.7693623,61.335239 44.3239312,60.9413961 45.7799988,60.3751476 C48.1711871,59.445241 50.2036667,58.1433913 51.8774986,56.4695595 C53.5513304,54.7957276 54.8531801,52.8031006 55.7830867,50.4916185 C56.6770163,48.2695649 57.1412672,45.8634008 57.1758517,43.2730594 L57.1758517,43.2730594 Z M40.9678496,61.5760648 C40.2620268,53.2080078 34.5347067,46.2696341 26.8099995,43.7850539 L26.8099995,61.7700005 L37.8094108,61.7700005 C38.8991685,61.7700005 39.95198,61.7053555 40.9678496,61.5760648 L40.9678496,61.5760648 Z" id="logo" sketch:type="MSShapeGroup"></path>
            <path d="M101.196721,1.80327869 L119.167213,1.80327869 C122.931166,1.80327869 126.38523,2.41146933 129.529508,3.62786885 C132.673786,4.84426838 135.381956,6.53113675 137.654098,8.68852459 C139.926241,10.8459124 141.681961,13.3819526 142.921311,16.2967213 C144.160662,19.21149 144.780328,22.3671961 144.780328,25.7639344 L144.780328,25.9016393 C144.780328,29.2983776 144.160662,32.4655591 142.921311,35.4032787 C141.681961,38.3409983 139.926241,40.8885138 137.654098,43.0459016 C135.381956,45.2032895 132.673786,46.9016331 129.529508,48.1409836 C126.38523,49.3803341 122.931166,50 119.167213,50 L101.196721,50 L101.196721,1.80327869 Z M109.665574,9.5147541 L109.665574,42.2885246 L119.167213,42.2885246 C121.691816,42.2885246 123.986875,41.8868893 126.052459,41.0836066 C128.118043,40.2803239 129.873763,39.1557449 131.319672,37.7098361 C132.765581,36.2639272 133.89016,34.5426329 134.693443,32.5459016 C135.496725,30.5491703 135.898361,28.3803396 135.898361,26.0393443 L135.898361,25.9016393 C135.898361,23.560644 135.496725,21.380338 134.693443,19.3606557 C133.89016,17.3409735 132.765581,15.608204 131.319672,14.1622951 C129.873763,12.7163862 128.118043,11.580332 126.052459,10.7540984 C123.986875,9.92786472 121.691816,9.5147541 119.167213,9.5147541 L109.665574,9.5147541 Z M167.537705,50.8262295 C164.921298,50.8262295 162.47706,50.3672177 160.204918,49.4491803 C157.932775,48.531143 155.959025,47.2459099 154.283607,45.5934426 C152.608188,43.9409753 151.288529,41.9557493 150.32459,39.6377049 C149.360651,37.3196605 148.878688,34.7606697 148.878688,31.9606557 L148.878688,31.8229508 C148.878688,29.2065443 149.31475,26.7508311 150.186885,24.4557377 C151.059021,22.1606443 152.286877,20.1524676 153.870492,18.4311475 C155.454106,16.7098275 157.324579,15.3557426 159.481967,14.3688525 C161.639355,13.3819623 164.026216,12.8885246 166.642623,12.8885246 C169.534441,12.8885246 172.070481,13.4163882 174.25082,14.4721311 C176.431158,15.5278741 178.244255,16.9508107 179.690164,18.7409836 C181.136073,20.5311565 182.226226,22.6081849 182.960656,24.9721311 C183.695086,27.3360774 184.062295,29.8262164 184.062295,32.442623 C184.062295,32.8098379 184.05082,33.1885226 184.027869,33.5786885 C184.004918,33.9688544 183.970492,34.3704897 183.92459,34.7836066 L157.209836,34.7836066 C157.668855,37.767228 158.85081,40.0508118 160.755738,41.6344262 C162.660665,43.2180407 164.9672,44.0098361 167.67541,44.0098361 C169.740994,44.0098361 171.53114,43.6426266 173.045902,42.9081967 C174.560663,42.1737668 176.052452,41.0950891 177.521311,39.6721311 L182.409836,44.0098361 C180.665565,46.0754202 178.588537,47.7278627 176.178688,48.9672131 C173.76884,50.2065636 170.888541,50.8262295 167.537705,50.8262295 L167.537705,50.8262295 Z M175.8,29.2754098 C175.662294,27.9442556 175.363937,26.6934485 174.904918,25.5229508 C174.445899,24.3524532 173.826233,23.3426272 173.045902,22.4934426 C172.26557,21.644258 171.336071,20.9672156 170.257377,20.4622951 C169.178683,19.9573745 167.950827,19.704918 166.57377,19.704918 C164.003266,19.704918 161.880336,20.5885158 160.204918,22.3557377 C158.5295,24.1229597 157.508199,26.429494 157.140984,29.2754098 L175.8,29.2754098 Z M189.262295,13.6459016 L197.593443,13.6459016 L197.593443,19.1540984 C198.190167,18.3278647 198.832783,17.5475447 199.521311,16.8131148 C200.209839,16.0786849 201.001635,15.4131177 201.896721,14.8163934 C202.791808,14.2196691 203.801634,13.749182 204.926229,13.404918 C206.050825,13.060654 207.301632,12.8885246 208.678688,12.8885246 C211.295095,12.8885246 213.521302,13.4737646 215.357377,14.6442623 C217.193452,15.81476 218.593438,17.3639248 219.557377,19.2918033 C221.026237,17.3639248 222.747531,15.81476 224.721311,14.6442623 C226.695092,13.4737646 229.059003,12.8885246 231.813115,12.8885246 C235.806577,12.8885246 238.927858,14.0934306 241.177049,16.5032787 C243.426241,18.9131268 244.55082,22.34424 244.55082,26.7967213 L244.55082,50 L236.219672,50 L236.219672,29.3442623 C236.219672,26.4524446 235.577056,24.2491879 234.291803,22.7344262 C233.006551,21.2196646 231.193454,20.4622951 228.852459,20.4622951 C226.557365,20.4622951 224.686892,21.2311399 223.240984,22.7688525 C221.795075,24.3065651 221.072131,26.5442476 221.072131,29.4819672 L221.072131,50 L212.740984,50 L212.740984,29.2754098 C212.740984,26.429494 212.098367,24.2491879 210.813115,22.7344262 C209.527862,21.2196646 207.714766,20.4622951 205.37377,20.4622951 C203.032775,20.4622951 201.150827,21.2655657 199.727869,22.8721311 C198.304911,24.4786966 197.593443,26.6819532 197.593443,29.4819672 L197.593443,50 L189.262295,50 L189.262295,13.6459016 Z M268.754098,50.8262295 C265.999986,50.8262295 263.440995,50.3327918 261.077049,49.3459016 C258.713103,48.3590115 256.6705,47.0164019 254.94918,45.3180328 C253.22786,43.6196636 251.885251,41.6229623 250.921311,39.3278689 C249.957372,37.0327754 249.47541,34.6000129 249.47541,32.0295082 L249.47541,31.8918033 C249.47541,29.2753968 249.968847,26.8196836 250.955738,24.5245902 C251.942628,22.2294967 253.296713,20.2213201 255.018033,18.5 C256.739353,16.7786799 258.781955,15.4131198 261.145901,14.4032787 C263.509848,13.3934376 266.091789,12.8885246 268.891803,12.8885246 C271.691817,12.8885246 274.273759,13.3819623 276.637705,14.3688525 C279.001651,15.3557426 281.044254,16.7098275 282.765574,18.4311475 C284.486894,20.1524676 285.829503,22.149169 286.793442,24.4213115 C287.757382,26.693454 288.239344,29.1376918 288.239344,31.7540984 L288.239344,31.8918033 C288.239344,34.4623079 287.745906,36.8950705 286.759016,39.1901639 C285.772126,41.4852574 284.418041,43.493434 282.696721,45.2147541 C280.975401,46.9360742 278.921323,48.3016343 276.534426,49.3114754 C274.147529,50.3213165 271.554112,50.8262295 268.754098,50.8262295 L268.754098,50.8262295 Z M268.891803,43.5278689 C270.590172,43.5278689 272.116387,43.2180359 273.470492,42.5983607 C274.824597,41.9786854 275.983602,41.1524642 276.947541,40.1196721 C277.91148,39.0868801 278.645899,37.8704988 279.15082,36.4704918 C279.65574,35.0704848 279.908197,33.5901717 279.908197,32.0295082 L279.908197,31.8918033 C279.908197,30.2852379 279.632789,28.7704989 279.081967,27.347541 C278.531145,25.924583 277.7623,24.6852512 276.77541,23.6295082 C275.78852,22.5737652 274.618039,21.7360687 273.263934,21.1163934 C271.909829,20.4967182 270.406565,20.1868852 268.754098,20.1868852 C267.101631,20.1868852 265.598367,20.4967182 264.244262,21.1163934 C262.890157,21.7360687 261.731152,22.5622899 260.767213,23.595082 C259.803274,24.627874 259.068855,25.8557306 258.563934,27.2786885 C258.059014,28.7016465 257.806557,30.1934348 257.806557,31.7540984 L257.806557,31.8918033 C257.806557,33.4983687 258.081964,35.0016323 258.632787,36.4016393 C259.183609,37.8016463 259.952454,39.0295029 260.939344,40.0852459 C261.926234,41.1409889 263.096714,41.9786854 264.45082,42.5983607 C265.804925,43.2180359 267.285238,43.5278689 268.891803,43.5278689 L268.891803,43.5278689 Z M310.308197,50.8262295 C307.599986,50.8262295 305.098372,50.3327918 302.803278,49.3459016 C300.508185,48.3590115 298.522959,47.0164019 296.847541,45.3180328 C295.172123,43.6196636 293.863939,41.6229623 292.922951,39.3278689 C291.981962,37.0327754 291.511475,34.6000129 291.511475,32.0295082 L291.511475,31.8918033 C291.511475,29.3212986 291.981962,26.8770608 292.922951,24.5590164 C293.863939,22.240972 295.183598,20.2213201 296.881967,18.5 C298.580336,16.7786799 300.577038,15.4131198 302.872131,14.4032787 C305.167224,13.3934376 307.691789,12.8885246 310.445901,12.8885246 C312.144271,12.8885246 313.693435,13.0377034 315.093442,13.3360656 C316.493449,13.6344277 317.778682,14.0590136 318.94918,14.6098361 C320.119678,15.1606585 321.198356,15.8262256 322.185246,16.6065574 C323.172136,17.3868891 324.101635,18.236061 324.97377,19.1540984 L319.740983,24.7311475 C318.455731,23.3999933 317.090171,22.3098403 315.644262,21.4606557 C314.198353,20.6114712 312.442633,20.1868852 310.377049,20.1868852 C308.862287,20.1868852 307.462301,20.4967182 306.177049,21.1163934 C304.891797,21.7360687 303.778693,22.5622899 302.837705,23.595082 C301.896716,24.627874 301.162298,25.8557306 300.634426,27.2786885 C300.106555,28.7016465 299.842623,30.1934348 299.842623,31.7540984 L299.842623,31.8918033 C299.842623,33.4983687 300.106555,35.0131076 300.634426,36.4360656 C301.162298,37.8590235 301.908192,39.0983554 302.872131,40.1540984 C303.83607,41.2098413 304.9836,42.0360626 306.314754,42.6327869 C307.645908,43.2295112 309.114746,43.5278689 310.721311,43.5278689 C312.695092,43.5278689 314.427861,43.1147582 315.919672,42.2885246 C317.411483,41.462291 318.822944,40.3836132 320.154098,39.052459 L325.180328,44.0098361 C323.390155,46.0295183 321.347552,47.6704855 319.052459,48.9327869 C316.757365,50.1950883 313.84264,50.8262295 310.308197,50.8262295 L310.308197,50.8262295 Z M329.622951,13.6459016 L337.954098,13.6459016 L337.954098,21.8393443 C339.101645,19.0852321 340.731137,16.8819755 342.842623,15.2295082 C344.954109,13.5770409 347.616377,12.8196714 350.829508,12.957377 L350.829508,21.7704918 L350.347541,21.7704918 C348.511466,21.7704918 346.836073,22.0688495 345.321311,22.6655738 C343.80655,23.2622981 342.498366,24.1573711 341.396721,25.3508197 C340.295076,26.5442683 339.445904,28.0475319 338.84918,29.8606557 C338.252456,31.6737796 337.954098,33.7737586 337.954098,36.1606557 L337.954098,50 L329.622951,50 L329.622951,13.6459016 Z M363.603278,50.757377 C361.904909,50.757377 360.275417,50.5163959 358.714754,50.0344262 C357.15409,49.5524566 355.78853,48.8409883 354.618033,47.9 C353.447535,46.9590117 352.506561,45.7885316 351.795082,44.3885246 C351.083603,42.9885176 350.727869,41.370501 350.727869,39.5344262 L350.727869,39.3967213 C350.727869,37.422941 351.095078,35.7016467 351.829508,34.2327869 C352.563938,32.7639271 353.585239,31.5475458 354.893442,30.5836066 C356.201646,29.6196673 357.785236,28.8967237 359.644262,28.4147541 C361.503288,27.9327845 363.534415,27.6918033 365.737705,27.6918033 C367.803289,27.6918033 369.593435,27.8295068 371.108196,28.104918 C372.622958,28.3803292 374.091796,28.7475387 375.514754,29.2065574 L375.514754,28.3114754 C375.514754,25.6950689 374.745909,23.7213181 373.208196,22.3901639 C371.670484,21.0590097 369.432801,20.3934426 366.495082,20.3934426 C364.429498,20.3934426 362.59345,20.5999979 360.986885,21.0131148 C359.38032,21.4262316 357.750828,21.9770457 356.09836,22.6655738 L353.895082,16.1245902 C355.914764,15.2065528 357.980317,14.4836092 360.091803,13.9557377 C362.203289,13.4278662 364.704903,13.1639344 367.596721,13.1639344 C373.013142,13.1639344 377.029495,14.5180192 379.645901,17.2262295 C380.977056,18.5573837 381.963931,20.163925 382.606557,22.0459016 C383.249183,23.9278783 383.570492,26.0622831 383.570492,28.4491803 L383.570492,50 L375.445901,50 L375.445901,45.4557377 C374.206551,46.9245975 372.62296,48.1754047 370.695082,49.2081967 C368.767203,50.2409888 366.403292,50.757377 363.603278,50.757377 L363.603278,50.757377 Z M365.944262,44.6983607 C367.321318,44.6983607 368.606551,44.5147559 369.8,44.147541 C370.993448,43.780326 372.01475,43.2524625 372.863934,42.5639344 C373.713119,41.8754064 374.390161,41.0491851 374.895082,40.0852459 C375.400002,39.1213067 375.652459,38.0655795 375.652459,36.9180328 L375.652459,34.4393443 C374.596716,34.0262274 373.368859,33.6819686 371.968852,33.4065574 C370.568845,33.1311462 369.042631,32.9934426 367.390164,32.9934426 C364.681953,32.9934426 362.581974,33.5213062 361.090164,34.5770492 C359.598353,35.6327922 358.852459,37.1245805 358.852459,39.052459 L358.852459,39.1901639 C358.852459,40.934435 359.529501,42.2885198 360.883606,43.252459 C362.237711,44.2163983 363.92458,44.6983607 365.944262,44.6983607 L365.944262,44.6983607 Z M407.154098,50.8262295 C404.445888,50.8262295 401.944273,50.3327918 399.64918,49.3459016 C397.354087,48.3590115 395.368861,47.0164019 393.693442,45.3180328 C392.018024,43.6196636 390.70984,41.6229623 389.768852,39.3278689 C388.827864,37.0327754 388.357377,34.6000129 388.357377,32.0295082 L388.357377,31.8918033 C388.357377,29.3212986 388.827864,26.8770608 389.768852,24.5590164 C390.70984,22.240972 392.029499,20.2213201 393.727869,18.5 C395.426238,16.7786799 397.422939,15.4131198 399.718032,14.4032787 C402.013126,13.3934376 404.537691,12.8885246 407.291803,12.8885246 C408.990172,12.8885246 410.539337,13.0377034 411.939344,13.3360656 C413.339351,13.6344277 414.624584,14.0590136 415.795082,14.6098361 C416.965579,15.1606585 418.044257,15.8262256 419.031147,16.6065574 C420.018037,17.3868891 420.947536,18.236061 421.819672,19.1540984 L416.586885,24.7311475 C415.301633,23.3999933 413.936072,22.3098403 412.490164,21.4606557 C411.044255,20.6114712 409.288535,20.1868852 407.22295,20.1868852 C405.708189,20.1868852 404.308203,20.4967182 403.02295,21.1163934 C401.737698,21.7360687 400.624595,22.5622899 399.683606,23.595082 C398.742618,24.627874 398.008199,25.8557306 397.480328,27.2786885 C396.952456,28.7016465 396.688524,30.1934348 396.688524,31.7540984 L396.688524,31.8918033 C396.688524,33.4983687 396.952456,35.0131076 397.480328,36.4360656 C398.008199,37.8590235 398.754093,39.0983554 399.718032,40.1540984 C400.681972,41.2098413 401.829501,42.0360626 403.160655,42.6327869 C404.49181,43.2295112 405.960647,43.5278689 407.567213,43.5278689 C409.540993,43.5278689 411.273763,43.1147582 412.765573,42.2885246 C414.257384,41.462291 415.668845,40.3836132 417,39.052459 L422.026229,44.0098361 C420.236056,46.0295183 418.193454,47.6704855 415.89836,48.9327869 C413.603267,50.1950883 410.688542,50.8262295 407.154098,50.8262295 L407.154098,50.8262295 Z M451.32459,13.6459016 L460,13.6459016 L445.540983,51.0327869 C444.806553,52.9147635 444.049184,54.4983542 443.268852,55.7836066 C442.48852,57.0688589 441.616398,58.1131107 440.652459,58.9163934 C439.688519,59.7196761 438.632792,60.3049162 437.485246,60.6721311 C436.337699,61.0393461 435.029515,61.2229508 433.560655,61.2229508 C431.816384,61.2229508 430.26722,61.0278708 428.913114,60.6377049 C427.559009,60.247539 426.23935,59.7082002 424.954098,59.0196721 L427.777049,52.8229508 C428.557381,53.2360676 429.349176,53.5688512 430.152459,53.8213115 C430.955741,54.0737718 431.793438,54.2 432.665573,54.2 C433.859022,54.2 434.845897,53.9016423 435.626229,53.304918 C436.406561,52.7081937 437.14098,51.629516 437.829508,50.0688525 L422.681967,13.6459016 L431.632787,13.6459016 L441.891803,40.6360656 L451.32459,13.6459016 Z M487.714754,50.8262295 C484.042604,50.8262295 480.737719,50.1491871 477.8,48.795082 C474.86228,47.4409768 472.34919,45.6164049 470.260655,43.3213115 C468.17212,41.026218 466.565579,38.3869002 465.440983,35.4032787 C464.316387,32.4196572 463.754098,29.2754264 463.754098,25.9704918 L463.754098,25.8327869 C463.754098,22.5278523 464.316387,19.3836215 465.440983,16.4 C466.565579,13.4163785 468.17212,10.7770607 470.260655,8.48196721 C472.34919,6.18687377 474.86228,4.36230185 477.8,3.00819672 C480.737719,1.65409159 484.042604,0.97704918 487.714754,0.97704918 C491.341001,0.97704918 494.634411,1.65409159 497.595082,3.00819672 C500.555752,4.36230185 503.080317,6.18687377 505.168852,8.48196721 C507.257387,10.7770607 508.863928,13.4163785 509.988524,16.4 C511.11312,19.3836215 511.675409,22.5278523 511.675409,25.8327869 L511.675409,25.9704918 C511.675409,29.2754264 511.11312,32.4196572 509.988524,35.4032787 C508.863928,38.3869002 507.257387,41.026218 505.168852,43.3213115 C503.080317,45.6164049 500.555752,47.4409768 497.595082,48.795082 C494.634411,50.1491871 491.341001,50.8262295 487.714754,50.8262295 L487.714754,50.8262295 Z M487.783606,49.4491803 C491.134443,49.4491803 494.186871,48.8065638 496.940983,47.5213115 C499.695095,46.2360591 502.059006,44.5262402 504.032786,42.3918033 C506.006567,40.2573664 507.521306,37.7787026 508.577049,34.9557377 C509.632792,32.1327728 510.160655,29.1606713 510.160655,26.0393443 L510.160655,25.9016393 C510.160655,22.8262141 509.621316,19.865588 508.542623,17.0196721 C507.463929,14.1737563 505.937714,11.6721419 503.963934,9.5147541 C501.990154,7.35736626 499.614768,5.6245967 496.837704,4.31639344 C494.060641,3.00819018 490.996738,2.35409836 487.645901,2.35409836 C484.249163,2.35409836 481.185259,2.99671489 478.454098,4.28196721 C475.722937,5.56721954 473.370501,7.27703851 471.396721,9.41147541 C469.422941,11.5459123 467.908202,14.0360513 466.852459,16.8819672 C465.796716,19.7278831 465.268852,22.6885092 465.268852,25.7639344 L465.268852,25.9016393 C465.268852,28.9770646 465.808191,31.9376907 466.886885,34.7836066 C467.965579,37.6295224 469.491793,40.1311368 471.465573,42.2885246 C473.439354,44.4459124 475.81474,46.178682 478.591803,47.4868852 C481.368866,48.7950885 484.43277,49.4491803 487.783606,49.4491803 L487.783606,49.4491803 Z M536.636065,50.6885246 C532.918014,50.6885246 529.46395,50.0229575 526.27377,48.6918033 C523.08359,47.3606491 520.18034,45.4557501 517.563934,42.9770492 L518.665573,41.8754098 C521.144274,44.262307 523.898345,46.0983542 526.927868,47.3836066 C529.957392,48.6688589 533.239326,49.3114754 536.77377,49.3114754 C539.022962,49.3114754 541.065564,49.024593 542.901639,48.4508197 C544.737714,47.8770463 546.298354,47.085251 547.583606,46.0754098 C548.868858,45.0655687 549.855734,43.8606627 550.544262,42.4606557 C551.23279,41.0606487 551.577049,39.5573851 551.577049,37.9508197 L551.577049,37.8131148 C551.577049,36.344255 551.324592,35.024596 550.819672,33.8540984 C550.314751,32.6836007 549.465579,31.6393489 548.272131,30.7213115 C547.078682,29.8032741 545.460665,28.9885281 543.418032,28.2770492 C541.375399,27.5655702 538.839359,26.8885278 535.809836,26.2459016 C532.826214,25.6491773 530.290174,24.9721349 528.201639,24.2147541 C526.113104,23.4573733 524.41476,22.5737755 523.106557,21.5639344 C521.798354,20.5540933 520.845904,19.3950885 520.24918,18.0868852 C519.652456,16.778682 519.354098,15.2754183 519.354098,13.5770492 L519.354098,13.4393443 C519.354098,11.7409751 519.744258,10.1459091 520.52459,8.65409836 C521.304921,7.16228762 522.395074,5.85410398 523.795081,4.7295082 C525.195088,3.60491241 526.847531,2.72131469 528.752459,2.07868852 C530.657386,1.43606236 532.757365,1.1147541 535.052459,1.1147541 C538.219687,1.1147541 541.191789,1.60819179 543.968852,2.59508197 C546.745915,3.58197215 549.236054,4.92458167 551.439344,6.62295082 L550.475409,7.86229508 C548.318022,6.25572967 545.93116,4.95902133 543.314754,3.97213115 C540.698347,2.98524097 537.898375,2.49180328 534.914754,2.49180328 C532.803268,2.49180328 530.886893,2.79016095 529.165573,3.38688525 C527.444253,3.98360954 525.96394,4.7868802 524.72459,5.79672131 C523.485239,6.80656243 522.53279,7.96556723 521.867213,9.27377049 C521.201636,10.5819738 520.868852,11.9475339 520.868852,13.3704918 L520.868852,13.5081967 C520.868852,14.9770565 521.121308,16.2852402 521.626229,17.4327869 C522.13115,18.5803336 522.991797,19.6016349 524.208196,20.4967213 C525.424596,21.3918078 527.019662,22.1950784 528.993442,22.9065574 C530.967223,23.6180363 533.445886,24.2721282 536.429508,24.8688525 C539.550835,25.5114786 542.178677,26.2344222 544.313114,27.0377049 C546.447551,27.8409876 548.168845,28.7590112 549.477049,29.7918033 C550.785252,30.8245953 551.714751,31.9950754 552.265573,33.3032787 C552.816396,34.611482 553.091803,36.091795 553.091803,37.7442623 L553.091803,37.8819672 C553.091803,39.6721401 552.713118,41.3475332 551.955737,42.9081967 C551.198356,44.4688603 550.108203,45.8229451 548.685245,46.9704918 C547.262287,48.1180385 545.529518,49.0245868 543.486885,49.6901639 C541.444252,50.355741 539.160668,50.6885246 536.636065,50.6885246 L536.636065,50.6885246 Z" id="DemocracyOS" sketch:type="MSShapeGroup"></path>
            <path d="M102.272131,66.0655738 L110.008197,66.0655738 C111.144268,66.0655738 112.158602,66.2233591 113.05123,66.5389344 C113.943857,66.8545098 114.701226,67.3008168 115.323361,67.8778689 C115.945495,68.4549209 116.423359,69.1446681 116.756967,69.9471311 C117.090575,70.7495942 117.257377,71.6377 117.257377,72.6114754 L117.257377,72.6655738 C117.257377,73.7655793 117.059018,74.7303237 116.662295,75.5598361 C116.265572,76.3893484 115.720085,77.0836038 115.02582,77.642623 C114.331554,78.2016421 113.520087,78.6209002 112.591393,78.9004098 C111.6627,79.1799194 110.666399,79.3196721 109.602459,79.3196721 L106.437705,79.3196721 L106.437705,85 L102.272131,85 L102.272131,66.0655738 Z M109.737705,75.6139344 C110.783612,75.6139344 111.595079,75.3389372 112.172131,74.7889344 C112.749183,74.2389317 113.037705,73.5582008 113.037705,72.7467213 L113.037705,72.692623 C113.037705,71.7549133 112.735659,71.0426254 112.131557,70.5557377 C111.527456,70.06885 110.702464,69.8254098 109.656557,69.8254098 L106.437705,69.8254098 L106.437705,75.6139344 L109.737705,75.6139344 Z M137.732787,65.9303279 L141.57377,65.9303279 L149.688524,85 L145.333606,85 L143.602459,80.7532787 L135.595901,80.7532787 L133.864754,85 L129.618032,85 L137.732787,65.9303279 Z M142.114754,77.0745902 L139.59918,70.9344262 L137.083606,77.0745902 L142.114754,77.0745902 Z M163.509835,66.0655738 L172.165573,66.0655738 C174.563946,66.0655738 176.403272,66.7057313 177.683606,67.9860656 C178.765578,69.0680382 179.306557,70.5106467 179.306557,72.3139344 L179.306557,72.3680328 C179.306557,73.9008273 178.93238,75.1495853 178.184016,76.1143443 C177.435651,77.0791032 176.457382,77.786883 175.24918,78.2377049 L179.874589,85 L175.005737,85 L170.94836,78.9409836 L167.675409,78.9409836 L167.675409,85 L163.509835,85 L163.509835,66.0655738 Z M171.895081,75.2622951 C172.922955,75.2622951 173.711882,75.0188549 174.261884,74.5319672 C174.811887,74.0450795 175.086884,73.3959057 175.086884,72.5844262 L175.086884,72.5303279 C175.086884,71.628684 174.798363,70.9524613 174.221311,70.5016393 C173.644259,70.0508174 172.841808,69.8254098 171.813934,69.8254098 L167.675409,69.8254098 L167.675409,75.2622951 L171.895081,75.2622951 Z M194.155737,66.0655738 L198.32131,66.0655738 L198.32131,85 L194.155737,85 L194.155737,66.0655738 Z M220.690162,85.2704918 C219.247532,85.2704918 217.831973,85.0225435 216.443441,84.5266393 C215.05491,84.0307352 213.792627,83.2688576 212.656556,82.2409836 L215.118031,79.292623 C215.983609,79.9959052 216.871715,80.554916 217.782376,80.9696721 C218.693036,81.3844283 219.689337,81.5918033 220.77131,81.5918033 C221.636888,81.5918033 222.308603,81.434018 222.786474,81.1184426 C223.264345,80.8028673 223.503277,80.3655766 223.503277,79.8065574 L223.503277,79.752459 C223.503277,79.4819659 223.453687,79.2430338 223.354507,79.0356557 C223.255326,78.8282777 223.065983,78.6344271 222.786474,78.4540984 C222.506964,78.2737696 222.119263,78.0934435 221.623359,77.9131148 C221.127455,77.732786 220.482789,77.5434436 219.689343,77.345082 C218.7336,77.1106546 217.868035,76.8491818 217.092621,76.5606557 C216.317208,76.2721297 215.659018,75.9159857 215.118031,75.4922131 C214.577045,75.0684405 214.157787,74.5409868 213.860244,73.9098361 C213.562702,73.2786854 213.413933,72.494267 213.413933,71.5565574 L213.413933,71.502459 C213.413933,70.6368809 213.576226,69.8569707 213.900818,69.1627049 C214.22541,68.4684392 214.680733,67.868855 215.266802,67.3639344 C215.85287,66.8590139 216.551634,66.4713128 217.363113,66.2008197 C218.174593,65.9303265 219.067207,65.795082 220.040982,65.795082 C221.429514,65.795082 222.705321,66.0024569 223.868441,66.4172131 C225.031562,66.8319693 226.099994,67.4270453 227.073769,68.202459 L224.909835,71.3401639 C224.062289,70.7631119 223.232789,70.3077886 222.42131,69.9741803 C221.60983,69.6405721 220.798363,69.4737705 219.986884,69.4737705 C219.175404,69.4737705 218.566804,69.6315558 218.161064,69.9471311 C217.755324,70.2627065 217.552457,70.6549157 217.552457,71.1237705 L217.552457,71.1778689 C217.552457,71.4844278 217.611063,71.7504087 217.728277,71.9758197 C217.845491,72.2012306 218.057374,72.4040975 218.363933,72.5844262 C218.670492,72.764755 219.08975,72.9360648 219.62172,73.0983607 C220.15369,73.2606565 220.825404,73.4499989 221.636884,73.6663934 C222.592626,73.9188537 223.444667,74.2028673 224.193031,74.5184426 C224.941396,74.834018 225.572537,75.2127027 226.086474,75.6545082 C226.600411,76.0963137 226.988112,76.6147511 227.249589,77.2098361 C227.511065,77.804921 227.641802,78.517209 227.641802,79.3467213 L227.641802,79.4008197 C227.641802,80.3385293 227.470492,81.1725373 227.127867,81.9028689 C226.785243,82.6332004 226.307379,83.246309 225.694261,83.7422131 C225.081143,84.2381172 224.350822,84.616802 223.503277,84.8782787 C222.655732,85.1397554 221.718036,85.2704918 220.690162,85.2704918 L220.690162,85.2704918 Z" id="PARIS" sketch:type="MSShapeGroup"></path>
            <path d="M258.387705,85.3245902 C257.035239,85.3245902 255.781973,85.0721337 254.627869,84.5672131 C253.473765,84.0622926 252.477463,83.3725454 251.638934,82.4979508 C250.800406,81.6233563 250.146724,80.5909896 249.677869,79.4008197 C249.209014,78.2106498 248.97459,76.939351 248.97459,75.5868852 L248.97459,75.5327869 C248.97459,74.198354 249.213522,72.9360715 249.691393,71.7459016 C250.169265,70.5557318 250.827455,69.5143487 251.665984,68.6217213 C252.504512,67.7290939 253.500814,67.0258222 254.654918,66.5118852 C255.809022,65.9979483 257.071305,65.7409836 258.441803,65.7409836 C259.289349,65.7409836 260.055734,65.813114 260.740984,65.957377 C261.426233,66.1016401 262.061882,66.309015 262.647951,66.5795082 C263.234019,66.8500014 263.784014,67.1700801 264.297951,67.5397541 C264.811888,67.9094281 265.312293,68.3196699 265.79918,68.7704918 L264.798361,69.7983607 C264.383604,69.4016374 263.950822,69.0319689 263.5,68.6893443 C263.049178,68.3467196 262.566806,68.0536897 262.052869,67.8102459 C261.538932,67.5668021 260.979921,67.3729515 260.37582,67.2286885 C259.771718,67.0844255 259.118036,67.0122951 258.414754,67.0122951 C257.278683,67.0122951 256.223775,67.2286864 255.25,67.6614754 C254.276225,68.0942645 253.4332,68.6938486 252.720902,69.4602459 C252.008603,70.2266432 251.449592,71.1237654 251.043852,72.1516393 C250.638113,73.1795133 250.435246,74.2885186 250.435246,75.4786885 L250.435246,75.5327869 C250.435246,76.7229568 250.642621,77.8364702 251.057377,78.8733607 C251.472133,79.9102511 252.035652,80.8118814 252.747951,81.5782787 C253.460249,82.344676 254.303274,82.9487683 255.277049,83.3905738 C256.250825,83.8323793 257.305732,84.0532787 258.441803,84.0532787 C259.812302,84.0532787 261.002454,83.8008222 262.012295,83.2959016 C263.022136,82.7909811 264.004913,82.0606605 264.960656,81.104918 L265.907377,82.0245902 C265.402456,82.5114778 264.884019,82.9577849 264.352049,83.3635246 C263.820079,83.7692643 263.252052,84.116392 262.647951,84.404918 C262.043849,84.6934441 261.390167,84.9188516 260.686885,85.0811475 C259.983603,85.2434434 259.217217,85.3245902 258.387705,85.3245902 L258.387705,85.3245902 Z M280.67541,66.0655738 L282.081967,66.0655738 L282.081967,83.7016393 L293.19918,83.7016393 L293.19918,85 L280.67541,85 L280.67541,66.0655738 Z M308.508197,66.0655738 L309.914754,66.0655738 L309.914754,85 L308.508197,85 L308.508197,66.0655738 Z M326.630328,66.0655738 L327.955738,66.0655738 L335.556557,77.2639344 L343.157377,66.0655738 L344.482787,66.0655738 L344.482787,85 L343.07623,85 L343.07623,68.5540984 L335.583607,79.454918 L335.47541,79.454918 L327.982787,68.5540984 L327.982787,85 L326.630328,85 L326.630328,66.0655738 Z M368.204098,65.9303279 L369.556557,65.9303279 L378.37459,85 L376.832787,85 L374.42541,79.6983607 L363.254098,79.6983607 L360.846721,85 L359.386066,85 L368.204098,65.9303279 Z M373.830328,78.4270492 L368.853279,67.4721311 L363.84918,78.4270492 L373.830328,78.4270492 Z M398.52541,67.3639344 L391.92541,67.3639344 L391.92541,66.0655738 L406.531967,66.0655738 L406.531967,67.3639344 L399.931967,67.3639344 L399.931967,85 L398.52541,85 L398.52541,67.3639344 Z M421.705738,66.0655738 L435.17623,66.0655738 L435.17623,67.3639344 L423.112295,67.3639344 L423.112295,74.802459 L433.959016,74.802459 L433.959016,76.1008197 L423.112295,76.1008197 L423.112295,83.7016393 L435.311475,83.7016393 L435.311475,85 L421.705738,85 L421.705738,66.0655738 Z" id="CLIMATE" sketch:type="MSShapeGroup"></path>
            <path d="M457.32541,81.7 L463.627869,76.5336066 C464.222954,76.0467189 464.727867,75.6094282 465.142623,75.2217213 C465.557379,74.8340145 465.89549,74.464346 466.156967,74.1127049 C466.418444,73.7610638 466.607786,73.4184443 466.725,73.0848361 C466.842214,72.7512278 466.90082,72.3860676 466.90082,71.9893443 C466.90082,71.1778648 466.666396,70.5647562 466.197541,70.15 C465.728686,69.7352438 465.115578,69.5278689 464.358197,69.5278689 C463.618849,69.5278689 462.965167,69.7352438 462.397131,70.15 C461.829096,70.5647562 461.193446,71.2049137 460.490164,72.0704918 L457.568852,69.7172131 C458.037707,69.0860624 458.511063,68.5270516 458.988934,68.0401639 C459.466806,67.5532763 459.980735,67.1430345 460.530738,66.8094262 C461.08074,66.475818 461.689341,66.2233615 462.356557,66.0520492 C463.023774,65.8807368 463.781143,65.795082 464.628689,65.795082 C465.602464,65.795082 466.49057,65.9348347 467.293033,66.2143443 C468.095496,66.4938539 468.780735,66.886063 469.34877,67.3909836 C469.916806,67.8959042 470.358605,68.5090128 470.67418,69.2303279 C470.989756,69.951643 471.147541,70.7540939 471.147541,71.6377049 L471.147541,71.6918033 C471.147541,72.4852499 471.043853,73.1930297 470.836475,73.8151639 C470.629097,74.4372982 470.322543,75.0233579 469.916803,75.5733607 C469.511064,76.1233634 468.992626,76.6733579 468.361475,77.2233607 C467.730325,77.7733634 467.000004,78.3729476 466.170492,79.0221311 L463.086885,81.402459 L471.336885,81.402459 L471.336885,85 L457.32541,85 L457.32541,81.7 Z M493.597541,85.3245902 C492.33524,85.3245902 491.185661,85.0766418 490.14877,84.5807377 C489.11188,84.0848336 488.228282,83.3995945 487.497951,82.525 C486.767619,81.6504055 486.2041,80.6180387 485.807377,79.4278689 C485.410654,78.237699 485.212295,76.9573839 485.212295,75.5868852 L485.212295,75.5327869 C485.212295,74.1622882 485.415162,72.8819732 485.820902,71.6918033 C486.226641,70.5016334 486.799177,69.4647585 487.538525,68.5811475 C488.277873,67.6975366 489.165978,67.0032812 490.202869,66.4983607 C491.239759,65.9934401 492.389338,65.7409836 493.651639,65.7409836 C494.895908,65.7409836 496.03647,65.9889319 497.073361,66.4848361 C498.110251,66.9807402 498.993849,67.6659792 499.72418,68.5405738 C500.454512,69.4151683 501.022539,70.447535 501.428279,71.6377049 C501.834018,72.8278748 502.036885,74.1081899 502.036885,75.4786885 L502.036885,75.5327869 C502.036885,76.9032855 501.834018,78.1836006 501.428279,79.3737705 C501.022539,80.5639404 500.450004,81.6008153 499.710656,82.4844262 C498.971308,83.3680372 498.083202,84.0622926 497.046311,84.5672131 C496.009421,85.0721337 494.859842,85.3245902 493.597541,85.3245902 L493.597541,85.3245902 Z M493.651639,81.5647541 C494.28279,81.5647541 494.850817,81.4159851 495.355738,81.1184426 C495.860658,80.8209002 496.293441,80.4061502 496.654098,79.8741803 C497.014756,79.3422105 497.289753,78.7110692 497.479098,77.9807377 C497.668444,77.2504062 497.763115,76.4524633 497.763115,75.5868852 L497.763115,75.5327869 C497.763115,74.6672088 497.663935,73.8692659 497.465574,73.1389344 C497.267212,72.4086029 496.983199,71.7729535 496.613525,71.2319672 C496.243851,70.6909809 495.802052,70.2672146 495.288115,69.9606557 C494.774178,69.6540968 494.210659,69.5008197 493.597541,69.5008197 C492.96639,69.5008197 492.398363,69.6495887 491.893443,69.9471311 C491.388522,70.2446736 490.960248,70.6594236 490.608607,71.1913934 C490.256965,71.7233633 489.981968,72.3545045 489.783607,73.0848361 C489.585245,73.8151676 489.486066,74.6131104 489.486066,75.4786885 L489.486066,75.5327869 C489.486066,76.398365 489.585245,77.200816 489.783607,77.9401639 C489.981968,78.6795119 490.261474,79.3151613 490.622131,79.8471311 C490.982789,80.379101 491.420079,80.7983591 491.934016,81.104918 C492.447953,81.4114769 493.020489,81.5647541 493.651639,81.5647541 L493.651639,81.5647541 Z M519.077049,70.15 L515.777049,70.9614754 L514.911475,67.5532787 L520.348361,65.9303279 L523.188525,65.9303279 L523.188525,85 L519.077049,85 L519.077049,70.15 Z M544.827049,85.3245902 C543.294255,85.3245902 541.959842,85.0721337 540.82377,84.5672131 C539.687699,84.0622926 538.659841,83.3680372 537.740164,82.4844262 L540.255738,79.4819672 C540.977053,80.1311508 541.698357,80.6360638 542.419672,80.9967213 C543.140987,81.3573789 543.925406,81.5377049 544.772951,81.5377049 C545.746726,81.5377049 546.51762,81.3122973 547.085656,80.8614754 C547.653691,80.4106535 547.937705,79.7614796 547.937705,78.9139344 L547.937705,78.8598361 C547.937705,78.0483566 547.626642,77.4172154 547.004508,76.9663934 C546.382374,76.5155715 545.575415,76.2901639 544.583607,76.2901639 C543.988522,76.2901639 543.425003,76.3577862 542.893033,76.4930328 C542.361063,76.6282794 541.869674,76.795081 541.418852,76.9934426 L539.011475,75.397541 L539.552459,66.0655738 L551.183607,66.0655738 L551.183607,69.7172131 L543.122951,69.7172131 L542.906557,72.9901639 C543.285248,72.8999995 543.663933,72.823361 544.042623,72.7602459 C544.421313,72.6971308 544.872129,72.6655738 545.395082,72.6655738 C546.314759,72.6655738 547.175816,72.7827857 547.978279,73.0172131 C548.780742,73.2516405 549.484013,73.6122926 550.088115,74.0991803 C550.692216,74.586068 551.165572,75.2127011 551.508197,75.9790984 C551.850821,76.7454956 552.022131,77.6606504 552.022131,78.7245902 L552.022131,78.7786885 C552.022131,79.7885296 551.850821,80.6946681 551.508197,81.4971311 C551.165572,82.2995942 550.6832,82.9848332 550.061066,83.5528689 C549.438931,84.1209045 548.681562,84.5581952 547.788934,84.8647541 C546.896307,85.171313 545.909022,85.3245902 544.827049,85.3245902 L544.827049,85.3245902 Z" id="2015" sketch:type="MSShapeGroup"></path>
        </g>
    </g>
</svg>